<?xml version="1.0" encoding="utf-8"?>
<!-- Generator: Adobe Illustrator 16.0.0, SVG Export Plug-In . SVG Version: 6.00 Build 0)  -->
<!DOCTYPE svg PUBLIC "-//W3C//DTD SVG 1.1//EN" "http://www.w3.org/Graphics/SVG/1.1/DTD/svg11.dtd">
<svg version="1.1" xmlns="http://www.w3.org/2000/svg" xmlns:xlink="http://www.w3.org/1999/xlink" x="0px" y="0px"
	 width="7086.609px" height="7086.609px" viewBox="0 0 7086.609 7086.609" enable-background="new 0 0 7086.609 7086.609"
	 xml:space="preserve">
<g id="Vrstva_1">
</g>
<g id="Vrstva_2">
	<g>
		<g>
			<path fill="#C33C2B" d="M4517.672,3553.445c0,299.838-135.516,568.01-348.629,746.652l-384.244-384.244v581.389l0.004,471.84
				l-0.004,0.146c0.293-0.045,0.582-0.1,0.873-0.146h1052.355l-341.379-341.377c296.354-263.043,483.102-646.842,483.102-1074.26
				c0-710.919-516.641-1301.169-1194.947-1415.787v471.99C4206.086,2716.89,4517.672,3098.777,4517.672,3553.445z"/>
			<path fill="#C33C2B" d="M2569.978,3553.445c0-299.968,135.634-568.248,348.904-746.888l383.964,383.964v-580.873l0,0v-471.99l0,0
				v-0.365H2249.62v0.002l341.648,341.648c-296.51,263.051-483.371,646.952-483.369,1074.502
				c0,710.922,516.641,1301.168,1194.946,1415.783v-471.986C2881.559,4390,2569.978,4008.111,2569.978,3553.445z"/>
		</g>
		<g>
			<path fill="#D54D3F" d="M463.328,4152.121v1596.58c0,117.299,95.086,212.385,212.384,212.385h110.001V4478.152L463.328,4152.121z
				"/>
			<polygon fill="#BC4E45" points="785.713,4375.984 463.328,4152.121 785.713,4478.152 			"/>
			<path fill="#C33C2B" d="M2968.311,5961.086h121.118c117.298,0,212.384-95.086,212.384-212.385V4131.604l-333.502,231.584
				V5961.086z"/>
			<path fill="#F2F2F1" d="M1867.796,4739.391l1100.515-764.18l127.552-88.576c-2.141-0.059-4.28-0.105-6.434-0.105h-121.118
				H785.713H675.712c-11.075,0-21.945,0.85-32.557,2.48l142.558,98.998L1867.796,4739.391z"/>
			<polygon fill="#CECECD" points="1617.998,5319.838 1867.793,5127.373 1588.431,4933.385 785.713,4375.984 785.713,4478.152 			
				"/>
			<linearGradient id="SVGID_1_" gradientUnits="userSpaceOnUse" x1="2192.9478" y1="4744.8887" x2="3188.728" y2="5740.6689">
				<stop  offset="0" style="stop-color:#DADADA"/>
				<stop  offset="0.9947" style="stop-color:#FFFFFF"/>
			</linearGradient>
			<polygon fill="url(#SVGID_1_)" points="2147.161,4933.385 1867.793,5127.373 1617.998,5319.838 2252.081,5961.086 
				2968.311,5961.086 2968.311,4363.188 			"/>
			<polygon fill="#E3E3E1" points="785.713,4478.152 785.713,5961.086 1617.998,5319.838 			"/>
			<polygon fill="#EFEFEE" points="785.713,5961.086 2252.081,5961.086 1617.998,5319.838 			"/>
			<path fill="#DE5246" d="M3095.862,3886.635l-127.552,88.576l-1100.515,764.18L785.713,3988.008l-142.558-98.998
				c-101.842,15.672-179.827,103.678-179.827,209.904v53.207l322.385,223.863l802.718,557.4l279.362,193.988l279.368-193.988
				l821.149-570.197l333.502-231.584v-32.689C3301.813,3983.77,3210.18,3890.037,3095.862,3886.635z"/>
		</g>
		<path fill="#E3E3E1" d="M6417.332,1125.631c-2.139-0.062-4.279-0.105-6.428-0.105h-121.123H4107.184h-110
			c-11.072,0-21.941,0.85-32.559,2.481c-101.836,15.671-179.826,103.676-179.826,209.902v53.208v1596.58
			c0,117.296,95.09,212.385,212.385,212.385h110h1466.371h716.227h121.123c117.297,0,212.379-95.089,212.379-212.385V1370.6v-32.69
			C6623.283,1222.763,6531.654,1129.033,6417.332,1125.631z"/>
		<g>
			<g>
				<path fill="#DE5246" d="M4365.355,1376.6h261.66v-119.541h-289.217c-165.768,0-304.082,117.521-336.176,273.79
					c-4.609,22.416-7.025,45.633-7.025,69.41c0,19.716,1.666,39.039,4.857,57.846c27.498,162.001,168.514,285.36,338.344,285.36
					h289.217v-119.543h-261.66c-97.09,0-178.754-70.336-202.664-165.817h464.324v-127.256h-461.109
					C4193.297,1441.308,4272.229,1376.6,4365.355,1376.6z"/>
				<path fill="#DE5246" d="M5180.635,1731.333c-4.389-12.229-10.105-23.653-16.939-34.036
					c-21.123-32.104-52.914-54.242-89.236-59.291c-5.207-0.726-10.506-1.107-15.889-1.107h-202.777
					c-26.15-5.258-45.879-28.773-45.879-56.995c0-32.092,25.496-58.103,56.951-58.103h296.83v-97.254h-339.164
					c-51.334,0-95.83,33.953-117.725,83.561c-9.248,20.946-14.465,44.682-14.465,69.832c0,20.892,3.609,40.808,10.129,58.959
					c1.322,3.697,2.77,7.327,4.336,10.874c19.529,44.244,57.041,76.032,101.346,82.388c5.363,0.769,10.832,1.173,16.379,1.173
					h197.432c25.973,5.4,45.518,28.836,45.518,56.93c0,32.089-25.496,58.103-56.951,58.103h-303.723v97.32h351.764
					c42.871,0,80.971-23.69,105.125-60.398c16.977-25.801,27.066-58.029,27.066-92.997
					C5190.762,1769.398,5187.156,1749.485,5180.635,1731.333z"/>
				<path fill="#DE5246" d="M5541.291,1424.689h-135.666h-138.816v103.974v312.331v102.691v177.838h138.816v-177.838h127.455
					c143.354,0,259.566-116.215,259.566-259.572C5792.646,1543.507,5680.842,1429.023,5541.291,1424.689z M5507.682,1840.994
					h-102.057v-312.331h102.057c86.246,0,156.17,69.918,156.17,156.167C5663.852,1771.077,5593.928,1840.994,5507.682,1840.994z"/>
				<path fill="#DE5246" d="M6188.1,1437.561h-104.09c-139.764,0-253.066,113.298-253.066,253.06
					c0,139.765,113.303,253.065,253.066,253.065h104.09c139.762,0,253.064-113.301,253.064-253.065
					C6441.164,1550.858,6327.861,1437.561,6188.1,1437.561z M6109.898,1851.117c-70.238,0-127.176-69.22-127.176-154.607
					c0-85.386,56.938-154.605,127.176-154.605h52.313c70.238,0,127.176,69.22,127.176,154.605
					c0,85.388-56.938,154.607-127.176,154.607H6109.898z"/>
			</g>
			<g>
				<g>
					<path fill="#DE5246" d="M4344.07,2710.694c-25.568-27.333-44.551-61.68-54.172-100.105l3.215-127.255
						c27.396-89.542,106.328-154.247,199.449-154.247h193.102v-119.544h-220.658c-165.766,0-304.078,117.521-336.18,273.791
						c-4.602,22.418-7.021,45.633-7.021,69.415c0,7.193,0.23,14.336,0.662,21.424l117.895,174.277L4344.07,2710.694z"/>
				</g>
				<g>
					<path fill="#DE5246" d="M4944.258,2324.093h194.145c65.496,0,121.564,28.339,144.754,79.74l118.221-39.066
						c-36.723-94.472-127.162-162.116-233.811-165.432h-223.309h-138.816v103.977v258.394l138.816-45.876V2324.093z"/>
				</g>
				<polygon fill="#DE5246" points="5452.178,2346.439 5452.178,2199.335 5658.488,2199.335 5672.947,2272.888 				"/>
				<path fill="#C33C2B" d="M6086.902,2199.335l507.781-235.151l-1958.033,730.97l-114.258,42.652l-290.84,108.575L3841.068,2302.6
					l323.957,786.748l417.145-193.178h362.455v-167.854l195.83-90.685l252.918,259.282h206.305v-471.947l8.986-4.16l155.871,476.107
					h162.924c0,0,162.924-503.236,161.959-499.379c-0.965,3.854,0.006,499.379,0.006,499.379h136.891l-3.857-697.579H6086.902z
					 M5451.865,2768.694L5271.9,2615.646c0,0,90.623-29.157,125.955-97.215c8.232-3.814,54.01-25.013,54.01-25.013V2768.694z
					 M5838.764,2704.103l-106.475-340.546l251.523-116.48l-0.441,40.554L5838.764,2704.103z"/>
			</g>
		</g>
	</g>
</g>
</svg>
