<?xml version="1.0" encoding="utf-8"?>
<!-- Generator: Adobe Illustrator 16.0.0, SVG Export Plug-In . SVG Version: 6.00 Build 0)  -->
<!DOCTYPE svg PUBLIC "-//W3C//DTD SVG 1.1//EN" "http://www.w3.org/Graphics/SVG/1.1/DTD/svg11.dtd">
<svg version="1.1" xmlns="http://www.w3.org/2000/svg" xmlns:xlink="http://www.w3.org/1999/xlink" x="0px" y="0px"
	 width="7086.609px" height="7086.609px" viewBox="0 0 7086.609 7086.609" enable-background="new 0 0 7086.609 7086.609"
	 xml:space="preserve">
<g id="Vrstva_1">
</g>
<g id="Vrstva_2">
	<g>
		<g>
			<g>
				<path fill="#DE5246" d="M1768.484,1872.198h547.173v-249.979h-604.798c-346.646,0-635.884,245.754-702.997,572.539
					c-9.639,46.875-14.691,95.425-14.691,145.147c0,41.229,3.484,81.637,10.158,120.965
					c57.502,338.77,352.389,596.734,707.53,596.734h604.798V2807.62h-547.173c-203.03,0-373.803-147.083-423.803-346.75h970.976
					v-266.112h-964.253C1408.683,2007.512,1573.741,1872.198,1768.484,1872.198z"/>
				<path fill="#DE5246" d="M3473.363,2614.001c-9.178-25.572-21.132-49.463-35.423-71.175
					c-44.171-67.136-110.651-113.429-186.607-123.987c-10.889-1.517-21.969-2.315-33.226-2.315h-424.04
					c-54.685-10.995-95.94-60.17-95.94-119.186c0-67.109,53.316-121.501,119.094-121.501h620.719v-203.374h-709.246
					c-107.347,0-200.396,71.001-246.181,174.738c-19.339,43.802-30.249,93.437-30.249,146.03c0,43.688,7.548,85.335,21.181,123.293
					c2.765,7.731,5.792,15.322,9.067,22.739c40.839,92.521,119.282,158.996,211.93,172.286c11.215,1.607,22.651,2.453,34.25,2.453
					h412.861c54.313,11.293,95.185,60.301,95.185,119.049c0,67.103-53.316,121.502-119.094,121.502h-635.132v203.512h735.594
					c89.65,0,169.323-49.541,219.833-126.303c35.501-53.954,56.6-121.349,56.6-194.472
					C3494.54,2693.603,3487,2651.961,3473.363,2614.001z"/>
				<path fill="#DE5246" d="M4227.553,1972.761h-283.699h-290.287v217.425v653.134v214.744v371.887h290.287v-371.887h266.529
					c299.774,0,542.794-243.024,542.794-542.807C4753.177,2221.227,4519.376,1981.824,4227.553,1972.761z M4157.27,2843.32h-213.416
					v-653.134h213.416c180.355,0,326.577,146.209,326.577,326.57C4483.847,2697.113,4337.625,2843.32,4157.27,2843.32z"/>
				<path fill="#DE5246" d="M5580.133,1999.677h-217.669c-292.268,0-529.202,236.924-529.202,529.188
					c0,292.27,236.935,529.2,529.202,529.2h217.669c292.264,0,529.197-236.93,529.197-529.2
					C6109.33,2236.601,5872.396,1999.677,5580.133,1999.677z M5416.602,2864.489c-146.88,0-265.945-144.75-265.945-323.309
					c0-178.555,119.065-323.305,265.945-323.305h109.394c146.88,0,265.944,144.75,265.944,323.305
					c0,178.559-119.064,323.309-265.944,323.309H5416.602z"/>
			</g>
			<g>
				<g>
					<path fill="#DE5246" d="M1723.974,4662.002c-53.467-57.158-93.163-128.982-113.282-209.336l6.723-266.111
						c57.291-187.246,222.349-322.555,417.08-322.555h403.806v-249.985h-461.432c-346.642,0-635.875,245.754-703.005,572.54
						c-9.623,46.88-14.683,95.426-14.683,145.158c0,15.043,0.482,29.979,1.384,44.801l246.536,364.441L1723.974,4662.002z"/>
				</g>
				<g>
					<path fill="#DE5246" d="M2979.062,3853.557h405.987c136.963,0,254.211,59.261,302.704,166.75l247.219-81.695
						c-76.793-197.555-265.916-339.01-488.936-345.943h-466.974h-290.288V3810.1v540.342l290.288-95.934V3853.557z"/>
				</g>
				<polygon fill="#DE5246" points="4041.203,3900.287 4041.203,3592.668 4472.631,3592.668 4502.867,3746.479 				"/>
				<path fill="#C33C2B" d="M5368.513,3592.668l1061.852-491.739L2335.805,4629.504l-238.931,89.191l-608.192,227.049
					L672.117,3808.611l677.446,1645.215l872.315-403.965h757.951v-351.01l409.512-189.635l528.892,542.199h431.416V4064.5
					l18.792-8.699l325.951,995.615h340.7c0,0,340.699-1052.346,338.682-1044.279c-2.018,8.061,0.013,1044.279,0.013,1044.279h286.26
					l-8.066-1458.748H5368.513z M4040.549,4783.289l-376.335-320.049c0,0,189.507-60.973,263.392-203.293
					c17.216-7.977,112.943-52.305,112.943-52.305V4783.289z M4849.615,4648.217l-222.655-712.135l525.976-243.58l-0.923,84.805
					L4849.615,4648.217z"/>
			</g>
		</g>
	</g>
</g>
</svg>
