<?xml version="1.0" encoding="utf-8"?>
<!-- Generator: Adobe Illustrator 16.0.0, SVG Export Plug-In . SVG Version: 6.00 Build 0)  -->
<!DOCTYPE svg PUBLIC "-//W3C//DTD SVG 1.1//EN" "http://www.w3.org/Graphics/SVG/1.1/DTD/svg11.dtd">
<svg version="1.1" xmlns="http://www.w3.org/2000/svg" xmlns:xlink="http://www.w3.org/1999/xlink" x="0px" y="0px"
	 width="7086.609px" height="7086.609px" viewBox="0 0 7086.609 7086.609" enable-background="new 0 0 7086.609 7086.609"
	 xml:space="preserve">
<g id="Vrstva_1">
</g>
<g id="Vrstva_2">
	<g>
		<g>
			<path fill="none" d="M3543.305,3543.305"/>
		</g>
		<g>
			<path fill="none" d="M3543.305,3543.305"/>
		</g>
		<g>
			<g>
				<path fill="#D55548" d="M5645.368,5851.773c0,173.729-140.835,314.563-314.563,314.563H1755.804
					c-173.729,0-314.563-140.834-314.563-314.563V1234.837c0-173.729,140.834-314.563,314.563-314.563h3575.001
					c173.729,0,314.563,140.835,314.563,314.563V5851.773z"/>
				<path d="M5330.805,6166.994h-3575c-84.199,0-163.358-32.789-222.896-92.326s-92.326-138.697-92.326-222.895V1234.837
					c0-84.199,32.789-163.358,92.326-222.896s138.696-92.326,222.896-92.326h3575c84.199,0,163.359,32.789,222.896,92.326
					s92.325,138.697,92.325,222.896v4616.937c0,84.197-32.788,163.357-92.325,222.895S5415.004,6166.994,5330.805,6166.994z
					 M1755.805,920.932c-173.089,0-313.905,140.817-313.905,313.905v4616.937c0,173.088,140.816,313.904,313.905,313.904h3575
					c173.089,0,313.906-140.816,313.906-313.904V1234.837c0-173.088-140.817-313.905-313.906-313.905H1755.805z"/>
			</g>
			<g>
				<rect x="1754.985" y="1210.307" fill="#ECECEA" width="3576.64" height="4665.996"/>
			</g>
		</g>
		<g>
			<g>
				<path fill="#E05B4F" d="M4195.039,4051.69v684.405l-459.291,507.406c121.439,109.99,282.539,176.998,459.291,176.998
					c377.986,0,684.404-306.418,684.404-684.404S4573.025,4051.69,4195.039,4051.69z"/>
			</g>
			<g>
				<path fill="#C24636" d="M3393.545,4641.332h684.405v-684.405C3699.965,3956.927,3393.545,4263.346,3393.545,4641.332z"/>
			</g>
			<g>
				<path fill="#E05B4F" d="M3393.545,4736.096c0,201.234,86.854,382.18,225.115,507.406l459.29-507.406H3393.545z"/>
			</g>
		</g>
		<g>
			<line x1="2211.114" y1="1742.371" x2="4875.495" y2="1742.371"/>
			<path fill="#D55548" d="M4875.495,1841.083H2211.114c-54.517,0-98.712-44.195-98.712-98.712
				c0-54.518,44.195-98.713,98.712-98.713h2664.381c54.519,0,98.712,44.195,98.712,98.713
				C4974.207,1796.888,4930.014,1841.083,4875.495,1841.083z"/>
		</g>
		<g>
			<line x1="2211.114" y1="2481.528" x2="4875.495" y2="2481.528"/>
			<path fill="#D55548" d="M4875.495,2580.24H2211.114c-54.517,0-98.712-44.194-98.712-98.712s44.195-98.712,98.712-98.712h2664.381
				c54.519,0,98.712,44.194,98.712,98.712S4930.014,2580.24,4875.495,2580.24z"/>
		</g>
		<g>
			<line x1="2211.114" y1="3220.686" x2="4875.495" y2="3220.686"/>
			<path fill="#D55548" d="M4875.495,3319.398H2211.114c-54.517,0-98.712-44.195-98.712-98.713s44.195-98.712,98.712-98.712
				h2664.381c54.519,0,98.712,44.194,98.712,98.712S4930.014,3319.398,4875.495,3319.398z"/>
		</g>
		<g>
			<line x1="2211.114" y1="3959.843" x2="2991.009" y2="3959.843"/>
			<path fill="#D55548" d="M2991.009,4058.555h-779.895c-54.517,0-98.712-44.195-98.712-98.712s44.195-98.712,98.712-98.712h779.895
				c54.518,0,98.712,44.195,98.712,98.712S3045.526,4058.555,2991.009,4058.555z"/>
		</g>
		<g>
			<line x1="2211.114" y1="4699.002" x2="2991.009" y2="4699.002"/>
			<path fill="#D55548" d="M2991.009,4797.713h-779.895c-54.517,0-98.712-44.195-98.712-98.711
				c0-54.518,44.195-98.713,98.712-98.713h779.895c54.518,0,98.712,44.195,98.712,98.713
				C3089.721,4753.518,3045.526,4797.713,2991.009,4797.713z"/>
		</g>
		<g>
			<line x1="2211.114" y1="5438.158" x2="2991.009" y2="5438.158"/>
			<path fill="#D55548" d="M2991.009,5536.871h-779.895c-54.517,0-98.712-44.195-98.712-98.713s44.195-98.713,98.712-98.713h779.895
				c54.518,0,98.712,44.195,98.712,98.713S3045.526,5536.871,2991.009,5536.871z"/>
		</g>
	</g>
</g>
</svg>
